<svg width="128" height="128" viewBox="400 50 200 185" fill="none" xmlns="http://www.w3.org/2000/svg">
    <!-- Shadow/Base -->
    <path opacity="0.3" fill-rule="evenodd" clip-rule="evenodd" d="M427.053 222.385H574.675C577.724 222.385 580.119 224.782 580.119 227.832C580.119 230.883 577.724 233.28 574.675 233.28H427.053C424.005 233.28 421.61 230.883 421.61 227.832C421.61 224.782 424.223 222.385 427.053 222.385Z" fill="#AFAFAF"/>
    
    <!-- Feet -->
    <path fill-rule="evenodd" clip-rule="evenodd" d="M445.778 213.233C445.778 208.221 449.915 204.081 454.923 204.081H469.075C474.083 204.081 478.22 208.221 478.22 213.233C478.22 218.244 474.083 222.385 469.075 222.385H454.923C449.915 222.385 445.778 218.244 445.778 213.233Z" fill="#F49000"/>
    <path fill-rule="evenodd" clip-rule="evenodd" d="M523.291 213.233C523.291 208.221 527.428 204.081 532.435 204.081H546.588C551.596 204.081 555.733 208.221 555.733 213.233C555.733 218.244 551.596 222.385 546.588 222.385H532.435C527.21 222.385 523.291 218.244 523.291 213.233Z" fill="#F49000"/>
    
    <!-- Wings (Right) -->
    <path fill-rule="evenodd" clip-rule="evenodd" d="M564.224 151.565C568.143 151.565 571.409 154.834 571.409 158.756V184.469C571.409 188.391 568.143 191.66 564.224 191.66C560.305 191.66 557.039 188.391 557.039 184.469V158.756C557.039 154.834 560.305 151.565 564.224 151.565Z" fill="#43C000"/>
    <path fill-rule="evenodd" clip-rule="evenodd" d="M565.966 182.29V106.022L594.271 130.864C601.456 137.183 602.327 148.296 595.795 155.705C595.36 156.359 594.707 156.795 594.271 157.23L565.966 182.29Z" fill="#43C000"/>
    
    <!-- Wings (Left) -->
    <path fill-rule="evenodd" clip-rule="evenodd" d="M436.416 151.565C440.335 151.565 443.601 154.834 443.601 158.756V184.469C443.601 188.391 440.335 191.66 436.416 191.66C432.497 191.66 429.231 188.391 429.231 184.469V158.756C429.448 154.834 432.497 151.565 436.416 151.565Z" fill="#43C000"/>
    <path fill-rule="evenodd" clip-rule="evenodd" d="M406.587 157.23C405.933 156.795 405.498 156.141 405.062 155.705C398.53 148.514 399.184 137.401 406.587 130.864L434.892 106.022V182.29L406.587 157.23Z" fill="#43C000"/>
    
    <!-- Main Body -->
    <path fill-rule="evenodd" clip-rule="evenodd" d="M463.197 52.4176C481.486 60.0443 493.897 63.9666 500.647 63.9666C507.396 63.9666 519.589 60.2622 537.661 52.6355C549.636 47.6236 563.353 53.0713 568.579 65.0561C569.885 67.8889 570.539 71.1575 570.539 74.2082V146.771C570.539 185.341 539.185 216.719 500.647 216.719C462.108 216.719 430.537 185.558 430.537 146.771V74.2082C430.537 61.1338 440.988 50.6743 454.052 50.6743C457.1 50.6743 460.366 51.1101 463.197 52.4176Z" fill="#58CC02"/>
    
    <!-- Face Details -->
    <path d="M495.203 169.215C495.421 168.344 494.768 167.472 493.897 167.472H476.261C475.39 167.472 474.737 168.344 474.954 169.215C476.261 173.356 480.398 176.188 484.97 176.188C489.76 175.971 493.897 173.138 495.203 169.215ZM524.597 167.472H506.961C506.09 167.472 505.437 168.344 505.654 169.215C506.961 173.356 511.098 176.188 515.67 176.188C520.243 176.188 524.379 173.356 525.904 169.215C526.339 168.344 525.686 167.472 524.597 167.472ZM509.356 182.29H491.72C490.849 182.29 490.196 183.161 490.413 184.033C491.72 188.173 495.857 191.006 500.429 191.006C505.001 191.006 509.138 188.173 510.662 184.033C510.88 183.161 510.227 182.29 509.356 182.29Z" fill="#89E219"/>
    <path d="M509.791 128.467C506.308 128.467 500.429 128.467 492.155 128.467C488.236 137.837 478.873 144.374 467.987 144.374H465.81C451.439 144.374 439.682 132.607 439.682 118.226V101.447C439.682 91.4231 445.343 82.9247 453.399 78.3487C453.617 75.7338 454.488 73.1189 455.794 70.7219C456.665 69.1966 458.624 69.1966 459.713 70.2861L464.285 75.298C464.285 75.298 464.285 75.298 464.503 75.298C464.285 71.8115 465.156 68.325 466.898 65.2743C467.769 63.7489 469.293 63.7489 470.382 64.8385L489.978 85.9754C496.074 90.3335 504.784 90.3335 510.88 86.1933L530.04 64.8385C531.129 63.531 533.089 63.7489 533.96 65.2743C535.701 68.325 536.355 71.5936 536.355 74.8622L540.274 70.504C541.362 69.1966 543.322 69.4145 544.193 70.9399C545.282 72.901 546.153 75.298 546.37 77.477C555.297 81.6173 561.394 90.7694 561.394 101.229V117.79C561.394 132.172 549.636 143.939 535.266 143.939H533.306C522.855 143.939 513.711 137.619 509.791 128.467Z" fill="#89E219"/>
    
    <!-- Eyes -->
    <path fill-rule="evenodd" clip-rule="evenodd" d="M534.177 85.104C544.846 85.104 553.338 93.6024 553.338 104.28V115.829C553.338 126.506 544.846 135.005 534.177 135.005C523.509 135.005 515.017 126.506 515.017 115.829V104.28C515.017 93.8203 523.509 85.104 534.177 85.104Z" fill="white"/>
    <path fill-rule="evenodd" clip-rule="evenodd" d="M531.129 96.2173C536.137 96.2173 540.274 100.358 540.274 105.151V115.175C540.274 120.187 536.137 124.109 531.347 124.109C526.339 124.109 522.42 119.969 522.42 115.175V105.151C522.202 100.14 526.121 96.2173 531.129 96.2173Z" fill="#122431"/>
    <path fill-rule="evenodd" clip-rule="evenodd" d="M466.027 85.104C476.696 85.104 485.188 93.6024 485.188 104.28V115.829C485.188 126.506 476.696 135.005 466.027 135.005C455.358 135.005 446.867 126.506 446.867 115.829V104.28C446.867 93.8203 455.576 85.104 466.027 85.104Z" fill="white"/>
    <path fill-rule="evenodd" clip-rule="evenodd" d="M469.076 96.2173C474.083 96.2173 478.22 100.358 478.22 105.151V115.175C478.22 120.187 474.083 124.109 469.293 124.109C464.285 124.109 460.366 119.969 460.366 115.175V105.151C460.149 100.14 464.068 96.2173 469.076 96.2173Z" fill="#122431"/>
    
    <!-- Angry Mouth/Beak -->
    <path d="M555.95 131.3C546.588 133.697 538.314 137.402 530.693 142.631L524.815 133.915C533.306 128.032 542.886 123.891 553.338 121.059L555.95 131.3Z" fill="#89E219"/>
    <path d="M443.383 131.3L445.996 121.276C456.447 123.891 466.027 128.249 474.519 134.133L468.64 142.849C461.019 137.619 452.746 133.697 443.383 131.3Z" fill="#89E219"/>
    <path fill-rule="evenodd" clip-rule="evenodd" d="M460.149 79.6562H464.503C476.261 79.6562 485.841 89.2441 485.841 101.011V113.65L442.948 96.653C443.165 87.283 450.786 79.6562 460.149 79.6562Z" fill="#89E219"/>
    <path d="M440.77 95.9992L444.472 88.5903C469.946 101.229 488.889 107.33 500.864 107.33C512.622 107.33 529.387 101.229 550.943 88.5903L555.08 95.7813C532.218 109.074 514.364 115.611 500.647 115.611C487.147 115.611 467.334 109.074 440.77 95.9992Z" fill="#89E219"/>
    <path fill-rule="evenodd" clip-rule="evenodd" d="M534.83 79.6562C544.193 79.6562 551.814 87.283 551.814 96.653L508.92 113.65V101.011C508.92 89.2441 518.501 79.6562 530.258 79.6562H534.83Z" fill="#89E219"/>
    <path fill-rule="evenodd" clip-rule="evenodd" d="M500.864 117.572C507.178 117.572 512.186 122.584 512.186 128.903C512.186 135.222 507.178 140.234 500.864 140.234C494.55 140.234 489.542 135.222 489.542 128.903C489.542 122.584 494.768 117.572 500.864 117.572Z" fill="#F49000"/>
    <path d="M486.929 128.685C488.018 122.366 493.897 117.572 501.082 117.572C507.396 117.572 513.275 122.366 514.364 128.685V131.736C512.622 129.121 510.227 128.031 507.178 128.685C504.348 129.339 501.953 131.3 500.647 134.568L486.929 131.736V128.685Z" fill="#FFC200"/>
    <path d="M497.38 123.891C496.51 123.891 495.856 123.455 495.639 122.584C495.203 121.494 495.856 120.404 496.727 119.969C499.122 119.097 501.735 119.097 504.13 119.969C505.219 120.404 505.654 121.494 505.219 122.584C504.783 123.673 503.695 124.109 502.606 123.673C501.082 123.019 499.558 123.019 497.816 123.673C497.816 123.891 497.598 123.891 497.38 123.891Z" fill="#FFDE00"/>
</svg>
